<svg xmlns="http://www.w3.org/2000/svg" version="1.1" xmlns:xlink="http://www.w3.org/1999/xlink" xmlns:svgjs="http://svgjs.dev/svgjs" width="2000" height="1247" viewBox="0 0 2000 1247"><g transform="matrix(1,0,0,1,-1.2121212121212466,249.17962724410086)"><svg viewBox="0 0 396 247" data-background-color="#ffffff" preserveAspectRatio="xMidYMid meet" height="1247" width="2000" xmlns="http://www.w3.org/2000/svg" xmlns:xlink="http://www.w3.org/1999/xlink"><g id="tight-bounds" transform="matrix(1,0,0,1,0.2400000000000091,-0.09999999999999432)"><svg viewBox="0 0 395.52 247.2" height="247.2" width="395.52"><g><svg></svg></g><g><svg viewBox="0 0 395.52 247.2" height="247.2" width="395.52"><g transform="matrix(1,0,0,1,75.54432,65.70836210526316)"><svg viewBox="0 0 244.43135999999998 115.78327578947366" height="115.78327578947366" width="244.43135999999998"><g><svg viewBox="0 0 244.43135999999998 115.78327578947366" height="115.78327578947366" width="244.43135999999998"><g><svg viewBox="0 0 244.43136 115.78327578947368" height="115.78327578947366" width="244.43135999999998"><g><svg viewBox="0 0 244.43136 115.78327578947368" height="115.78327578947368" width="244.43136"><g id="textblocktransform"><svg viewBox="0 0 244.43136 115.78327578947368" height="115.78327578947368" width="244.43136" id="textblock"><g><svg viewBox="0 0 244.43136 115.78327578947368" height="115.78327578947368" width="244.43136"><g transform="matrix(1,0,0,1,0,0)"><svg width="244.43136" viewBox="1.8 -35.9 77.9 36.9" height="115.78327578947368" data-palette-color="#6230a3"><path d="M32.1-9.8L32.1-9.8 33.3-8Q29.25-3.4 25.2-1.2 21.15 1 16.5 1L16.5 1Q10.75 1 6.28-4.05 1.8-9.1 1.8-15.5L1.8-15.5Q1.8-23.55 7.88-29.73 13.95-35.9 22-35.9L22-35.9Q25.2-35.9 30-34.3L30-34.3 29.4-27.3 27.7-27.3Q27.7-29.15 26.45-30.2 25.2-31.25 23.63-31.53 22.05-31.8 19.7-31.8L19.7-31.8Q13.9-31.8 9.6-28.4 5.3-25 5.3-19.1L5.3-19.1Q5.3-14.8 6.9-11.45 8.5-8.1 10.9-6.3L10.9-6.3Q15.65-2.8 20-2.8L20-2.8Q22.7-2.8 26-4.55 29.3-6.3 32.1-9.8ZM58.6-1.4L58.6 0 51.4 0 51.4-4Q48.9-1.3 47.25-0.3 45.6 0.7 42.77 0.7 39.95 0.7 38.37-0.63 36.8-1.95 36.8-4.35 36.8-6.75 38.87-9.03 40.95-11.3 43.72-12.48 46.5-13.65 48.6-14.28 50.7-14.9 51.4-14.9L51.4-14.9 51.4-16Q51.4-20.7 47.5-20.7L47.5-20.7Q44.8-20.7 42.47-19.55 40.15-18.4 39-16.6L39-16.6 38-17.5Q41.35-24 49.6-24L49.6-24Q51.7-24 53.07-22.88 54.45-21.75 54.92-20.25 55.4-18.75 55.4-16.9L55.4-16.9 55.4-3.4Q55.4-2.75 55.5-2.4 55.6-2.05 56.12-1.73 56.65-1.4 57.7-1.4L57.7-1.4 58.6-1.4ZM51.4-6.8L51.4-6.8 51.4-12.9Q47.5-12.15 44.15-9.9 40.8-7.65 40.8-5L40.8-5Q40.8-3.95 41.82-3.18 42.85-2.4 44.37-2.4 45.9-2.4 48-3.78 50.1-5.15 51.4-6.8ZM62.5-1.4L62.5-1.4 63-6.8 64.4-6.7Q64.4-5 66.6-3.45 68.8-1.9 71.35-1.9L71.35-1.9Q76.6-1.9 76.6-5.1L76.6-5.1Q76.6-6.7 75.25-7.95 73.9-9.2 72-10.03 70.1-10.85 68.2-11.73 66.3-12.6 64.95-14.03 63.6-15.45 63.6-17.3L63.6-17.3Q63.6-23.8 73.2-23.8L73.2-23.8Q75.35-23.8 77.9-22.6L77.9-22.6 77.6-17.6 76.4-17.6Q76.4-19 74.77-20.3 73.15-21.6 71.25-21.6 69.35-21.6 68.02-20.85 66.7-20.1 66.7-18.63 66.7-17.15 68.05-16.2 69.4-15.25 71.3-14.65 73.2-14.05 75.1-13.3 77-12.55 78.35-10.85 79.7-9.15 79.7-6.6 79.7-4.05 78.05-2.35L78.05-2.35Q75.1 0.7 69.5 0.7L69.5 0.7Q65.15 0.7 62.5-1.4Z" opacity="1" transform="matrix(1,0,0,1,0,0)" fill="#6230a3" class="wordmark-text-0" data-fill-palette-color="primary" id="text-0"></path></svg></g></svg></g></svg></g></svg></g><g></g></svg></g></svg></g></svg></g><g><path d="M110.162 38.375A122.216 122.216 0 0 1 285.358 38.375L274.916 38.375A111.774 111.774 0 0 0 120.604 38.375L110.162 38.375M110.162 208.825A122.216 122.216 0 0 0 285.358 208.825L274.916 208.825A111.774 111.774 0 0 1 120.604 208.825L110.162 208.825" fill="#6230a3" stroke="transparent" data-fill-palette-color="tertiary"></path></g></svg></g><defs></defs></svg><rect width="395.52" height="247.2" fill="none" stroke="none" visibility="hidden"></rect></g></svg></g></svg>